<svg width="42" height="42" viewBox="0 0 42 42" fill="none" xmlns="http://www.w3.org/2000/svg">
<path fill-rule="evenodd" clip-rule="evenodd" d="M19.5 4.5V0H22.5V4.5H19.5ZM27.9511 5.96071L30.2011 2.0636L32.7991 3.5636L30.5491 7.46071L27.9511 5.96071ZM21 31.5C26.799 31.5 31.5 26.799 31.5 21C31.5 15.201 26.799 10.5 21 10.5C15.201 10.5 10.5 15.201 10.5 21C10.5 26.799 15.201 31.5 21 31.5ZM21 34.5C28.4558 34.5 34.5 28.4558 34.5 21C34.5 13.5442 28.4558 7.5 21 7.5C13.5442 7.5 7.5 13.5442 7.5 21C7.5 28.4558 13.5442 34.5 21 34.5ZM37.5 19.5H42V22.5H37.5V19.5ZM38.4365 9.20096L34.5394 11.451L36.0394 14.049L39.9365 11.799L38.4365 9.20096ZM9.20096 3.5636L11.451 7.46071L14.049 5.96071L11.799 2.0636L9.20096 3.5636ZM5.96062 14.049L2.06351 11.799L3.56351 9.20096L7.46062 11.451L5.96062 14.049ZM19.5 37.5V42H22.5V37.5H19.5ZM4.5 19.5H0V22.5H4.5V19.5ZM2.06343 30.201L5.96054 27.951L7.46054 30.549L3.56343 32.799L2.06343 30.201ZM11.4511 34.5396L9.20105 38.4367L11.7991 39.9367L14.0491 36.0396L11.4511 34.5396ZM30.201 39.9367L27.951 36.0396L30.549 34.5396L32.799 38.4367L30.201 39.9367ZM34.5395 30.549L38.4366 32.799L39.9366 30.201L36.0395 27.951L34.5395 30.549Z" fill="white"/>
</svg>
