<svg width="42" height="42" viewBox="0 0 42 42" fill="none" xmlns="http://www.w3.org/2000/svg">
<path fill-rule="evenodd" clip-rule="evenodd" d="M19.5 4.5V0H22.5V4.5H19.5ZM31.2929 29.7358C32.3595 31.0313 33 32.6907 33 34.4998C33 38.642 29.6422 41.9998 25.5 41.9998L25.445 41.9996H14.3081V41.9995L14.25 41.9997C8.0368 41.9997 3 36.9629 3 30.7496C3 27.0603 4.77596 23.7857 7.51962 21.7341C7.5066 21.4911 7.5 21.2463 7.5 21C7.5 13.5442 13.5442 7.5 21 7.5C28.4558 7.5 34.5 13.5442 34.5 21C34.5 24.3316 33.2932 27.3813 31.2929 29.7358ZM28.9623 27.8451C27.9266 27.3051 26.7489 26.9998 25.5 26.9998C24.2318 26.9998 23.0371 27.3146 21.9897 27.8703C22.3237 28.7668 22.5063 29.7371 22.5063 30.75C22.5063 30.8836 22.5031 31.0165 22.4968 31.1485C23.2933 30.4343 24.3459 29.9998 25.5 29.9998C27.9853 29.9998 30 32.0145 30 34.4998C30 36.9851 27.9853 38.9998 25.5 38.9998V38.9996H25.4574L25.3998 38.9987H14.375C14.3334 38.9994 14.2917 38.9997 14.25 38.9997C9.69366 38.9997 6 35.306 6 30.7496C6 26.1933 9.69366 22.4996 14.25 22.4996C17.7946 22.4996 20.8171 24.735 21.9846 27.8729C22.8578 27.4088 23.8336 27.1121 24.8691 27.0259C23.3322 22.6427 19.1581 19.4996 14.25 19.4996C12.9485 19.4996 11.6986 19.7207 10.5358 20.1272C10.9793 14.7366 15.4949 10.5 21 10.5C26.799 10.5 31.5 15.201 31.5 21C31.5 23.6151 30.544 26.007 28.9623 27.8451ZM42 19.5H37.5V22.5H42V19.5ZM34.5394 11.451L38.4365 9.20096L39.9365 11.799L36.0394 14.049L34.5394 11.451ZM30.2011 2.0636L27.9511 5.96071L30.5491 7.46071L32.7991 3.5636L30.2011 2.0636ZM11.451 7.46071L9.20096 3.5636L11.799 2.0636L14.049 5.96071L11.451 7.46071ZM2.06351 11.799L5.96062 14.049L7.46062 11.451L3.56351 9.20096L2.06351 11.799ZM0 19.5H4.5V22.5H0V19.5ZM34.5395 30.549L38.4366 32.799L39.9366 30.201L36.0395 27.951L34.5395 30.549Z" fill="white"/>
</svg>
