<svg width="42" height="38" viewBox="0 0 42 38" fill="none" xmlns="http://www.w3.org/2000/svg">
<path fill-rule="evenodd" clip-rule="evenodd" d="M38.9999 21.6622C38.9999 25.0714 36.7824 27.9318 33.75 28.8956V31.9999C38.4677 30.9619 41.9999 26.7277 41.9999 21.6622C41.9999 15.8184 37.2989 11.081 31.4999 11.081C31.2024 11.081 30.9078 11.0935 30.6166 11.1179C28.4648 4.93418 22.6212 0.5 15.75 0.5C7.05151 0.5 0 7.60606 0 16.3718C0 22.9967 4.02767 28.6735 9.75 31.0513V27.7313C5.7392 25.5679 3 21.302 3 16.3718C3 9.24108 8.73012 3.5 15.75 3.5C21.1851 3.5 25.8471 6.94155 27.675 11.805L27.6875 11.8001C28.0341 12.7387 28.2772 13.7291 28.4023 14.7566C29.3481 14.3224 30.3975 14.081 31.4999 14.081C35.6203 14.081 38.9999 17.4534 38.9999 21.6622ZM31.5 23H16.5V26H31.5V23ZM28.5 29H13.5V32H28.5V29ZM16.5 35H31.5V38H16.5V35Z" fill="white"/>
</svg>
