<svg width="42" height="42" viewBox="0 0 42 42" fill="none" xmlns="http://www.w3.org/2000/svg">
<path fill-rule="evenodd" clip-rule="evenodd" d="M42 22.5C42 27.9043 38.0625 32.355 33 32.9358V29.9054C36.3307 29.3423 39 26.323 39 22.5C39 18.2544 35.708 15 31.8739 15C30.7908 15 29.7509 15.2598 28.8162 15.7282C28.7686 14.8555 28.6406 14.0051 28.4398 13.1849L28.4353 13.1867C27.0137 7.27506 21.8758 3 15.9124 3C8.88269 3 3 8.9407 3 16.5C3 22.5986 6.82891 27.6437 12 29.3657V32.4976C5.10356 30.6897 0 24.2128 0 16.5C0 7.3873 7.12424 0 15.9124 0C18.9941 0 21.8712 0.908362 24.3082 2.48095C26.1781 0.931406 28.5787 0 31.197 0C37.1634 0 42.0001 4.83673 42.0001 10.8031C42.0001 12.9571 41.3697 14.9639 40.2834 16.649C41.3674 18.3209 42 20.3338 42 22.5ZM38.1818 14.2856C38.7055 13.2373 39.0001 12.0546 39.0001 10.8031C39.0001 6.49359 35.5065 3 31.197 3C29.5369 3 27.9979 3.51838 26.7331 4.4021C28.8477 6.43667 30.428 9.06006 31.2315 12.0208C31.444 12.007 31.6582 12 31.8739 12C34.259 12 36.4515 12.855 38.1818 14.2856ZM18.0032 38.1841C18.0033 38.6881 17.6163 39.0032 17.2531 39.0032C16.8899 39.0032 16.5027 38.6881 16.5025 38.1841C16.5023 37.5415 16.7629 36.6655 17.2116 35.6906C17.3619 36.0068 17.4985 36.3205 17.6153 36.6252C17.9083 37.3894 18.0031 37.9081 18.0032 38.1841ZM17.2503 30C17.2503 30 16.3543 31.0954 15.4385 32.6359C14.481 34.2464 13.5019 36.3435 13.5025 38.1841C13.5032 40.2933 15.1828 42.0032 17.254 42.0032C19.3253 42.0032 21.0038 40.2933 21.0032 38.1841C21.0027 36.5068 19.977 34.3465 18.9983 32.6667C18.1048 31.1332 17.2503 30 17.2503 30ZM26.2531 34.5032C26.6163 34.5032 27.0033 34.1881 27.0032 33.6841C27.0031 33.4081 26.9083 32.8894 26.6153 32.1252C26.4985 31.8205 26.3619 31.5068 26.2116 31.1906C25.7629 32.1655 25.5023 33.0415 25.5025 33.6841C25.5027 34.1881 25.8899 34.5032 26.2531 34.5032ZM24.4385 28.1359C25.3543 26.5954 26.2503 25.5 26.2503 25.5C26.2503 25.5 27.1048 26.6332 27.9983 28.1667C28.977 29.8465 30.0027 32.0068 30.0032 33.6841C30.0038 35.7933 28.3253 37.5032 26.254 37.5032C24.1828 37.5032 22.5032 35.7933 22.5025 33.6841C22.5019 31.8435 23.481 29.7464 24.4385 28.1359Z" fill="white"/>
</svg>
