<svg width="42" height="33" viewBox="0 0 42 33" fill="none" xmlns="http://www.w3.org/2000/svg">
<path fill-rule="evenodd" clip-rule="evenodd" d="M16.1506 32.9982C16.0714 32.9994 15.992 33 15.9124 33C7.12424 33 0 25.6127 0 16.5C0 7.3873 7.12424 0 15.9124 0C23.2034 0 29.3491 5.08465 31.2315 12.0208C31.444 12.007 31.6582 12 31.8739 12C37.4664 12 42 16.701 42 22.5C42 28.299 37.4664 32.9999 31.8739 32.9999C31.7487 32.9999 31.6241 32.9976 31.4999 32.9929V33H16.1506V32.9982ZM31.9544 30C35.7539 29.9548 39 26.7158 39 22.5C39 18.2544 35.708 15 31.8739 15C30.7908 15 29.7509 15.2598 28.8162 15.7282C28.7686 14.8555 28.6406 14.0051 28.4398 13.1849L28.4353 13.1867C27.0137 7.27506 21.8758 3 15.9124 3C8.88269 3 3 8.9407 3 16.5C3 24.0593 8.88269 30 15.9124 30L15.978 29.9998L31.9544 30Z" fill="white"/>
</svg>
