<svg width="42" height="41" viewBox="0 0 42 41" fill="none" xmlns="http://www.w3.org/2000/svg">
<path fill-rule="evenodd" clip-rule="evenodd" d="M34.5 32.6434C38.8194 31.4441 42 27.3572 42 22.5C42 20.3338 41.3674 18.3209 40.2834 16.649C41.3697 14.9639 42.0001 12.9571 42.0001 10.8031C42.0001 4.83673 37.1634 0 31.197 0C28.5787 0 26.1781 0.931406 24.3082 2.48095C21.8712 0.908362 18.9941 0 15.9124 0C7.12424 0 0 7.3873 0 16.5C0 23.0441 3.67408 28.6984 9 31.3661V27.9004C5.41529 25.5229 3 21.3437 3 16.5C3 8.9407 8.88269 3 15.9124 3C21.8758 3 27.0137 7.27506 28.4353 13.1867L28.4398 13.1849C28.6406 14.0051 28.7686 14.8555 28.8162 15.7282C29.7509 15.2598 30.7908 15 31.8739 15C35.708 15 39 18.2544 39 22.5C39 25.7278 37.0972 28.3826 34.5 29.47V32.6434ZM26.7331 4.4021C28.8477 6.43667 30.428 9.06006 31.2315 12.0208C31.444 12.007 31.6582 12 31.8739 12C34.259 12 36.4515 12.855 38.1818 14.2856C38.7055 13.2373 39.0001 12.0546 39.0001 10.8031C39.0001 6.49359 35.5065 3 31.197 3C29.5369 3 27.9979 3.51838 26.7331 4.4021ZM12.5414 28.3867C12.2299 29.1162 12.0013 29.8961 12.0016 30.6137C12.002 31.9316 13.0097 33 14.2523 33C15.4949 33 16.502 31.9316 16.5016 30.6137C16.5014 29.9428 16.2491 29.1482 15.9135 28.3878C15.2464 26.8762 14.25 25.5 14.25 25.5C14.25 25.5 13.2066 26.8284 12.5414 28.3867ZM19.5016 30.6137C19.5013 29.8961 19.7299 29.1162 20.0414 28.3867C20.7066 26.8284 21.75 25.5 21.75 25.5C21.75 25.5 22.7464 26.8762 23.4135 28.3878C23.7491 29.1482 24.0014 29.9428 24.0016 30.6137C24.002 31.9316 22.9949 33 21.7523 33C20.5097 33 19.502 31.9316 19.5016 30.6137ZM16.8531 35.8867C16.5417 36.6162 16.3131 37.3961 16.3133 38.1137C16.3137 39.4316 17.3214 40.5 18.5641 40.5C19.8067 40.5 20.8137 39.4316 20.8133 38.1137C20.8131 37.4428 20.5609 36.6482 20.2253 35.8878C19.5582 34.3762 18.5618 33 18.5618 33C18.5618 33 17.5184 34.3284 16.8531 35.8867ZM27.0016 30.6137C27.0014 29.8961 27.2299 29.1162 27.5414 28.3867C28.2066 26.8284 29.25 25.5 29.25 25.5C29.25 25.5 30.2464 26.8762 30.9135 28.3878C31.2491 29.1482 31.5014 29.9428 31.5016 30.6137C31.502 31.9316 30.4949 33 29.2523 33C28.0097 33 27.002 31.9316 27.0016 30.6137ZM24.3755 35.8867C24.064 36.6162 23.8355 37.3961 23.8357 38.1137C23.8361 39.4316 24.8438 40.5 26.0864 40.5C27.329 40.5 28.3361 39.4316 28.3357 38.1137C28.3355 37.4428 28.0832 36.6482 27.7476 35.8878C27.0805 34.3762 26.0841 33 26.0841 33C26.0841 33 25.0407 34.3284 24.3755 35.8867Z" fill="white"/>
</svg>
