<svg width="42" height="42" viewBox="0 0 42 42" fill="none" xmlns="http://www.w3.org/2000/svg">
<path fill-rule="evenodd" clip-rule="evenodd" d="M0 16.5C0 24.2128 5.10356 30.6897 12 32.4975V29.3657C6.82891 27.6437 3 22.5986 3 16.5C3 8.9407 8.88269 3 15.9124 3C21.8758 3 27.0137 7.27506 28.4353 13.1867L28.4398 13.1849C28.6406 14.0051 28.7686 14.8555 28.8162 15.7282C29.7509 15.2598 30.7908 15 31.8739 15C35.708 15 39 18.2544 39 22.5C39 26.7158 35.7539 29.9543 31.9544 29.9995V30H31.5V32.9929C31.6241 32.9976 31.7488 32.9999 31.8739 32.9999C37.4664 32.9999 42 28.2989 42 22.5C42 16.701 37.4664 12 31.8739 12C31.6582 12 31.444 12.007 31.2315 12.0208C29.3491 5.08465 23.2034 0 15.9124 0C7.12424 0 0 7.3873 0 16.5ZM22.7519 21.6679L16.7519 30.6679L15.1972 33H18H22.5664L17.784 39.6218L20.216 41.3782L26.716 32.3782L28.4336 30H25.5H20.8028L25.2481 23.3321L22.7519 21.6679Z" fill="white"/>
</svg>
